<svg width="24" height="24" viewBox="0 0 24 24" fill="none" xmlns="http://www.w3.org/2000/svg">
<path d="M5.33021 15.9291C5.11007 14.9684 4.99937 13.9858 5.00021 13.0001C5.00021 7.91212 7.90321 3.56412 12.0002 1.81812C16.0972 3.56412 19.0002 7.91212 19.0002 13.0001C19.0002 14.0101 18.8862 14.9911 18.6702 15.9291L20.6902 17.7251C20.7772 17.8024 20.8344 17.9077 20.8521 18.0227C20.8698 18.1377 20.8469 18.2552 20.7872 18.3551L18.3292 22.4511C18.2901 22.5162 18.2366 22.5715 18.173 22.6129C18.1093 22.6542 18.037 22.6805 17.9616 22.6898C17.8862 22.699 17.8098 22.691 17.7379 22.6663C17.6661 22.6415 17.6009 22.6008 17.5472 22.5471L15.2932 20.2931C15.1057 20.1056 14.8514 20.0002 14.5862 20.0001H9.41421C9.14902 20.0002 8.8947 20.1056 8.70721 20.2931L6.45321 22.5471C6.3995 22.6008 6.33427 22.6415 6.26247 22.6663C6.19067 22.691 6.11418 22.699 6.03881 22.6898C5.96344 22.6805 5.89116 22.6542 5.82747 22.6129C5.76378 22.5715 5.71034 22.5162 5.67121 22.4511L3.21321 18.3561C3.15329 18.2561 3.13018 18.1383 3.1479 18.0231C3.16561 17.9079 3.22302 17.8025 3.31021 17.7251L5.33021 15.9291ZM12.0002 13.0001C12.5306 13.0001 13.0394 12.7894 13.4144 12.4143C13.7895 12.0393 14.0002 11.5305 14.0002 11.0001C14.0002 10.4697 13.7895 9.96098 13.4144 9.5859C13.0394 9.21083 12.5306 9.00012 12.0002 9.00012C11.4698 9.00012 10.9611 9.21083 10.586 9.5859C10.2109 9.96098 10.0002 10.4697 10.0002 11.0001C10.0002 11.5305 10.2109 12.0393 10.586 12.4143C10.9611 12.7894 11.4698 13.0001 12.0002 13.0001Z" fill="black"/>
</svg>
