<svg width="24" height="24" viewBox="0 0 24 24" fill="none" xmlns="http://www.w3.org/2000/svg">
<path d="M15.0001 14.0001C15.2653 14.0001 15.5197 13.8948 15.7072 13.7072C15.8948 13.5197 16.0001 13.2653 16.0001 13.0001L16.0001 9.00012L14.0001 9.00012L14.0001 12.0001L11.0001 12.0001L11.0001 9.50012L7.50012 13.0001L11.0001 16.5001L11.0001 14.0001L15.0001 14.0001ZM11.2931 22.6071L1.39312 12.7071C1.20565 12.5196 1.10033 12.2653 1.10033 12.0001C1.10033 11.735 1.20565 11.4806 1.39312 11.2931L11.2931 1.39311C11.4806 1.20564 11.735 1.10033 12.0001 1.10033C12.2653 1.10033 12.5196 1.20564 12.7071 1.39312L22.6071 11.2931C22.7946 11.4806 22.8999 11.735 22.8999 12.0001C22.8999 12.2653 22.7946 12.5196 22.6071 12.7071L12.7071 22.6071C12.5196 22.7946 12.2653 22.8999 12.0001 22.8999C11.735 22.8999 11.4806 22.7946 11.2931 22.6071Z" fill="black"/>
</svg>
