<svg width="24" height="24" viewBox="0 0 24 24" fill="none" xmlns="http://www.w3.org/2000/svg">
<path d="M8.68588 3.99988L11.2929 1.39288C11.4804 1.20541 11.7347 1.1001 11.9999 1.1001C12.265 1.1001 12.5194 1.20541 12.7069 1.39288L15.3139 3.99988H18.9999C19.2651 3.99988 19.5195 4.10524 19.707 4.29278C19.8945 4.48031 19.9999 4.73467 19.9999 4.99988V8.68588L22.6069 11.2929C22.7944 11.4804 22.8997 11.7347 22.8997 11.9999C22.8997 12.265 22.7944 12.5194 22.6069 12.7069L19.9999 15.3139V18.9999C19.9999 19.2651 19.8945 19.5195 19.707 19.707C19.5195 19.8945 19.2651 19.9999 18.9999 19.9999H15.3139L12.7069 22.6069C12.5194 22.7944 12.265 22.8997 11.9999 22.8997C11.7347 22.8997 11.4804 22.7944 11.2929 22.6069L8.68588 19.9999H4.99988C4.73467 19.9999 4.48031 19.8945 4.29278 19.707C4.10524 19.5195 3.99988 19.2651 3.99988 18.9999V15.3139L1.39288 12.7069C1.20541 12.5194 1.1001 12.265 1.1001 11.9999C1.1001 11.7347 1.20541 11.4804 1.39288 11.2929L3.99988 8.68588V4.99988C3.99988 4.73467 4.10524 4.48031 4.29278 4.29278C4.48031 4.10524 4.73467 3.99988 4.99988 3.99988H8.68588ZM11.9999 14.9999C12.7955 14.9999 13.5586 14.6838 14.1212 14.1212C14.6838 13.5586 14.9999 12.7955 14.9999 11.9999C14.9999 11.2042 14.6838 10.4412 14.1212 9.87856C13.5586 9.31595 12.7955 8.99988 11.9999 8.99988C11.2042 8.99988 10.4412 9.31595 9.87856 9.87856C9.31595 10.4412 8.99988 11.2042 8.99988 11.9999C8.99988 12.7955 9.31595 13.5586 9.87856 14.1212C10.4412 14.6838 11.2042 14.9999 11.9999 14.9999V14.9999Z" fill="black"/>
</svg>
