<svg width="24" height="24" viewBox="0 0 24 24" fill="none" xmlns="http://www.w3.org/2000/svg">
<path d="M20.8389 3.96922C21.9966 5.12698 22.6747 6.67902 22.7378 8.31511C22.8008 9.9512 22.2441 11.5508 21.1789 12.7942L21.1919 12.8082L21.1229 12.8762C19.974 12.1749 18.6227 11.8803 17.2862 12.0397C15.9497 12.1991 14.7056 12.8033 13.7539 13.7551C12.8022 14.7069 12.1981 15.9511 12.0389 17.2876C11.8797 18.6242 12.1744 19.9754 12.8759 21.1242L11.9999 22.0002L2.80786 12.8082L2.82086 12.7942C1.75492 11.5496 1.19844 9.94819 1.26284 8.31073C1.32723 6.67327 2.00775 5.12056 3.16815 3.96345C4.32854 2.80634 5.88318 2.13023 7.52082 2.07048C9.15845 2.01073 10.7582 2.57175 11.9999 3.64122C13.2426 2.57068 14.8441 2.00956 16.4832 2.07039C18.1224 2.13123 19.6779 2.80951 20.8379 3.96922H20.8389ZM18.9999 14.0002V17.0002H21.9999V19.0002H18.9989L18.9999 22.0002H16.9999L16.9989 19.0002H13.9999V17.0002H16.9999V14.0002H18.9999Z" fill="black"/>
</svg>
