<svg width="24" height="24" viewBox="0 0 24 24" fill="none" xmlns="http://www.w3.org/2000/svg">
<path d="M2.13209 13.6298C1.95272 12.5505 1.95272 11.449 2.13209 10.3698C3.23409 10.3958 4.22409 9.86777 4.60909 8.93877C4.99409 8.00877 4.66709 6.93477 3.86909 6.17577C4.5055 5.28505 5.28465 4.50557 6.17509 3.86877C6.93509 4.66677 8.00909 4.99377 8.93909 4.60877C9.86909 4.22377 10.3961 3.23277 10.3691 2.13177C11.449 1.95217 12.5512 1.95217 13.6311 2.13177C13.6041 3.23377 14.1321 4.22377 15.0611 4.60877C15.9911 4.99377 17.0651 4.66677 17.8241 3.86877C18.7148 4.50518 19.4943 5.28433 20.1311 6.17477C19.3331 6.93477 19.0061 8.00877 19.3911 8.93877C19.7761 9.86877 20.7671 10.3958 21.8681 10.3688C22.0477 11.4487 22.0477 12.5508 21.8681 13.6308C20.7661 13.6038 19.7761 14.1318 19.3911 15.0608C19.0061 15.9908 19.3331 17.0648 20.1311 17.8238C19.4947 18.7145 18.7155 19.494 17.8251 20.1308C17.0651 19.3328 15.9911 19.0058 15.0611 19.3908C14.1311 19.7758 13.6041 20.7668 13.6311 21.8678C12.5512 22.0474 11.449 22.0474 10.3691 21.8678C10.3961 20.7658 9.86809 19.7758 8.93909 19.3908C8.00909 19.0058 6.93509 19.3328 6.17609 20.1308C5.28538 19.4944 4.50589 18.7152 3.86909 17.8248C4.66709 17.0648 4.99409 15.9908 4.60909 15.0608C4.22409 14.1308 3.23309 13.6038 2.13209 13.6308V13.6298ZM12.0001 14.9998C12.7957 14.9998 13.5588 14.6837 14.1214 14.1211C14.684 13.5585 15.0001 12.7954 15.0001 11.9998C15.0001 11.2041 14.684 10.4411 14.1214 9.87845C13.5588 9.31584 12.7957 8.99977 12.0001 8.99977C11.2044 8.99977 10.4414 9.31584 9.87877 9.87845C9.31616 10.4411 9.00009 11.2041 9.00009 11.9998C9.00009 12.7954 9.31616 13.5585 9.87877 14.1211C10.4414 14.6837 11.2044 14.9998 12.0001 14.9998V14.9998Z" fill="black"/>
</svg>
