<svg width="24" height="24" viewBox="0 0 24 24" fill="none" xmlns="http://www.w3.org/2000/svg">
<path d="M21.1792 12.7939L21.1922 12.8079L12.0002 21.9999L2.80821 12.8079L2.82121 12.7939C1.75378 11.5494 1.19605 9.94758 1.2598 8.30929C1.32355 6.67099 2.00406 5.1173 3.16496 3.95956C4.32587 2.80181 5.88141 2.12554 7.51987 2.06627C9.15834 2.00699 10.7587 2.56908 12.0002 3.6399C13.2417 2.56908 14.8421 2.00699 16.4806 2.06627C18.119 2.12554 19.6746 2.80181 20.8355 3.95956C21.9964 5.1173 22.6769 6.67099 22.7406 8.30929C22.8044 9.94758 22.2466 11.5494 21.1792 12.7939Z" fill="black"/>
</svg>
