<svg width="24" height="24" viewBox="0 0 24 24" fill="none" xmlns="http://www.w3.org/2000/svg">
<path d="M20.8391 3.96904C21.9972 5.12685 22.6755 6.67909 22.7385 8.31541C22.8016 9.95174 22.2447 11.5516 21.1791 12.795L21.1921 12.808L20.8381 13.161L19.4241 11.746L19.5451 11.626L19.6611 11.492C20.3723 10.6618 20.7569 9.60101 20.7431 8.5079C20.7293 7.41479 20.318 6.36409 19.5861 5.55203L19.4251 5.38303C18.6509 4.6088 17.621 4.14339 16.5283 4.07399C15.4356 4.00459 14.3551 4.33596 13.4891 5.00603L13.3091 5.15403L12.0001 6.28403L10.6931 5.15403C9.8489 4.42522 8.76408 4.0359 7.64907 4.06155C6.53406 4.0872 5.4683 4.52601 4.65846 5.29287C3.84863 6.05974 3.35242 7.10002 3.26608 8.21198C3.17973 9.32394 3.5094 10.4283 4.19114 11.311L4.33814 11.491L4.45214 11.625L13.4131 20.586L12.0001 22L2.80814 12.808L2.82114 12.795C1.75233 11.5507 1.19352 9.94824 1.25679 8.3091C1.32006 6.66997 2.00074 5.11537 3.16229 3.95711C4.32384 2.79885 5.88036 2.12259 7.51967 2.06397C9.15897 2.00535 10.7598 2.5687 12.0011 3.64103C13.2438 2.57028 14.8453 2.00901 16.4845 2.06985C18.1237 2.13068 19.6793 2.80912 20.8391 3.96904V3.96904ZM19.0001 14V17H22.0001V19H18.9991L19.0001 22H17.0001L16.9991 19H14.0001V17H17.0001V14H19.0001Z" fill="black"/>
</svg>
