<svg width="24" height="24" viewBox="0 0 24 24" fill="none" xmlns="http://www.w3.org/2000/svg">
<path d="M3.0552 13H5.0702C5.31249 14.6648 6.14607 16.1867 7.41843 17.2872C8.69079 18.3878 10.3169 18.9935 11.9992 18.9935C13.6815 18.9935 15.3076 18.3878 16.58 17.2872C17.8523 16.1867 18.6859 14.6648 18.9282 13H20.9442C20.6977 15.1998 19.6491 17.2317 17.999 18.7072C16.3488 20.1828 14.2128 20.9985 11.9992 20.9985C9.78557 20.9985 7.64956 20.1828 5.99942 18.7072C4.34928 17.2317 3.30074 15.1998 3.0542 13H3.0552ZM3.0552 11C3.30174 8.80012 4.35028 6.76825 6.00042 5.29272C7.65056 3.81718 9.78657 3.00146 12.0002 3.00146C14.2138 3.00146 16.3498 3.81718 18 5.29272C19.6501 6.76825 20.6987 8.80012 20.9452 11H18.9302C18.6879 9.3352 17.8543 7.8133 16.582 6.71271C15.3096 5.61212 13.6835 5.00643 12.0012 5.00643C10.3189 5.00643 8.69279 5.61212 7.42043 6.71271C6.14807 7.8133 5.31449 9.3352 5.0722 11H3.0552Z" fill="black"/>
</svg>
