<svg width="24" height="24" viewBox="0 0 24 24" fill="none" xmlns="http://www.w3.org/2000/svg">
<path d="M2.82109 12.7942C1.8705 11.6856 1.32089 10.2892 1.26087 8.83017C1.20084 7.37109 1.63389 5.9343 2.49022 4.75141C3.34654 3.56852 4.57625 2.70845 5.98111 2.30983C7.38596 1.91122 8.88413 1.99729 10.2341 2.55417H10.2321L5.99009 6.79817L7.40409 8.21217L11.6461 3.97017C12.865 2.7511 14.5183 2.06618 16.2422 2.06609C17.9662 2.06599 19.6195 2.75073 20.8386 3.96967C22.0577 5.1886 22.7426 6.84188 22.7427 8.56581C22.7428 10.2897 22.058 11.9431 20.8391 13.1622L12.0001 22.0002L2.80809 12.8082L2.82109 12.7942V12.7942Z" fill="black"/>
</svg>
