<svg width="24" height="24" viewBox="0 0 24 24" fill="none" xmlns="http://www.w3.org/2000/svg">
<path d="M21.1792 12.7939L21.1922 12.8079L12.0002 21.9999L2.80821 12.8079L2.82121 12.7939C1.75378 11.5494 1.19605 9.94758 1.2598 8.30929C1.32355 6.67099 2.00406 5.1173 3.16496 3.95956C4.32587 2.80181 5.88141 2.12554 7.51987 2.06627C9.15834 2.00699 10.7587 2.56908 12.0002 3.6399C13.2417 2.56908 14.8421 2.00699 16.4806 2.06627C18.119 2.12554 19.6746 2.80181 20.8355 3.95956C21.9964 5.1173 22.6769 6.67099 22.7406 8.30929C22.8044 9.94758 22.2466 11.5494 21.1792 12.7939V12.7939ZM4.57521 5.3829C4.15734 5.80076 3.82587 6.29684 3.59972 6.84281C3.37357 7.38878 3.25717 7.97395 3.25717 8.5649C3.25717 9.15585 3.37357 9.74102 3.59972 10.287C3.82587 10.833 4.15734 11.329 4.57521 11.7469L12.0002 19.1719L19.4252 11.7469C20.2691 10.903 20.7432 9.75838 20.7432 8.5649C20.7432 7.37142 20.2691 6.22682 19.4252 5.3829C18.5813 4.53898 17.4367 4.06487 16.2432 4.06487C15.0497 4.06487 13.9051 4.53898 13.0612 5.3829L8.81821 9.6259L7.40421 8.2099L10.5662 5.0479C9.70143 4.35723 8.61246 4.00947 7.50743 4.07109C6.40241 4.13271 5.35885 4.59938 4.57621 5.3819L4.57521 5.3829Z" fill="black"/>
</svg>
